<?xml version="1.0" encoding="UTF-8"?>
<svg version="1.1" viewBox="0 0 984 816" width="1280" height="1280" xmlns="http://www.w3.org/2000/svg">
<path transform="translate(115,1)" d="m0 0h211l542 1 36 1 21 3 14 4 10 6 10 9 7 7 9 13 6 18 1 7 1 18 1 41v536l-1 79-3 15-5 15-9 14-11 11-12 8-12 5-5 1-15 1-158 1h-568l-115-1-14-1-5-3-6-2-9-6-12-11-9-11-7-11-4-18-1-10-1-43-1-564 1-51 3-21 4-12 10-17 10-11 10-7 12-7 16-4 17-2z" fill="#FDFDFD"/>
<path transform="translate(443,167)" d="m0 0h8l7 3 5 4 3 7 1 5v15l-4 22-7 25-2 14v20l4 11 9 17 13 15 9 6 15 3h20l17-3 16-8 9-8 8-10 6-12 2-11v-16l-5-35-1-10v-17l2-13 5-7 6-3h13l8 4 5 4 8 11 10 19 5 14 5 18 3 22v16l-3 16-7 17-10 19-9 15-7 13-8 14-2 5-1 32 2 8 2 3 5-1 6-10 9-11 13-12 9-7 16-9 11-5 14-4 9-3 17 1 14 3 24 9 16 8 12 7 9 7 5 4 9 12 4 8 3 10 1 9v13l-3 26-4 17-6 18-1 25-5 15-7 11-10 11-17 13-16 9-25 12-25 9-25 7-31 7-32 5-30 3-33 2-24 1h-27l-39-2-36-4-29-4-28-6-25-7-27-9-27-12-11-6-18-12-12-11-8-11-6-12-3-9-1-5v-11l3-10 6-9 3-5-10-3-18-7-10-6-13-11-6-12-3-11-1-7v-26l3-22 6-18 10-18 11-14 10-7 8-4 19-4 17-2h24l16 5 14 8 10 9 9 9 2 1v2l4 2 4 4 10-18 7-14 9-10 7-4 3-1h10l12 6 3 3 1 3v16l-4 17-6 15-9 13-9 10-10 10-7 5-7 2-13-1-15-3 3 16 3 7 16-2 35-8 26-5 24-3 9-4v-15l-2-21-3-12-14-29-8-14-8-16-7-16-2-16 1-17 4-22 6-20 10-24 6-12 9-12 8-7z" fill="#302F31"/>
<path transform="translate(446,182)" d="m0 0 3 1v15l-3 20-8 36-2 17 1 15 4 13 12 22 8 10 7 7 14 9 7 3 15 2h24l15-2 11-4 10-6 10-9 9-10 9-15 6-15 1-5v-24l-3-24-4-20-1-15 2-5 3-1 6 4 8 13 11 23 6 22 2 11v15l-3 18-7 16-15 27-11 16-8 16-3 12-2 35-1 1h-22l-26-1h-74l-2-1-1-4-2-21-4-25-12-25-10-19-8-13-6-13-4-15v-19l3-17 6-20 8-20 9-16 8-11z" fill="#FDFDFD"/>
<path transform="translate(381,340)" d="m0 0h3l-2 13-10 25-7 12-17 17-4 1h-13l-10-4-10-6-11-9-4-1-5 5v9l6 20 8 20 1 3v8l-4 6-5 3-15 1-25-9-11-4-13-4-9-2-2-3v-10l4-28-2-1h-10l-3 4-4 22v20l3 7 8 5 11 4 35 11 13 4 2 3-6 5-7 3h-18l-17-3-16-6-14-8-6-5-6-10-2-5-1-6v-21l4-22 3-12 4-10 6-8 10-9 14-8 15-5 15-2 18 1 11 4 12 9 15 15 10 7 9 3h11l5-5 7-8 6-10 9-14 7-9z" fill="#FDFDFD"/>
<path transform="translate(695,391)" d="m0 0h16l16 3 20 8 17 9 11 9 10 12 4 7 1 4v15l-2 21-4 18-5 12-7 9-7 8-12 9-21 12-9 4-8 2-13-1-4-4 1-7 8-5 38-19 11-8 7-10 4-14 3-19 2-22h-10l-4 4-2 5-4 22h-3l-10-5-17-9-24-8-11-3-1-4 4-11 4-8 1-9v-3l-12 1-20 8-9 7-5 4-4 8-2 13-2 25-2 17-2 4-5-3-4-5-3-9-1-7v-25l3-14 5-12 7-7 17-12 20-11 14-5z" fill="#FDFDFD"/>
<path transform="translate(765,256)" d="m0 0h11l12 3 9 6 8 9 7 14 3 12v15l-3 15-5 13-7 10-7 8-12 7-9 3-15 1-9-2-11-6-11-10-7-11-3-10-1-15 3-19 5-13 9-13 9-8 12-6z" fill="#302F31"/>
<path transform="translate(212,215)" d="m0 0h20l12 4 10 7 8 8 8 16 4 12v20l-4 16-3 6-8 11-5 6-8 4-17 5h-12l-16-8-10-7-7-10-6-13-2-10v-16l3-16 8-16 9-10 9-6z" fill="#302F31"/>
<path transform="translate(513,205)" d="m0 0h11l11 2 9 5 8 9 7 14 2 9v29l-5 16-6 10-8 9-12 7-10 2h-10l-11-4-8-6-8-9-7-14-3-12v-20l4-16 7-14 5-6 10-7 8-3z" fill="#302F31"/>
<path transform="translate(218,232)" d="m0 0h8l10 3 6 4 7 8 5 11 3 14v10l-2 9-5 9-4 5-8 6-8 2h-9l-7-3-12-11-6-9-3-11v-19l3-10 6-9 7-6z" fill="#FDFDFD"/>
<path transform="translate(766,275)" d="m0 0 12 1 8 4 7 8 4 8 1 4v17l-3 12-7 11-4 5-9 6-10 3h-7l-9-3-8-7-6-12-2-13 2-16 7-14 8-9 9-4z" fill="#FDFDFD"/>
<path transform="translate(511,222)" d="m0 0h13l9 3 7 11 4 10 1 5v13l-2 10-4 10-7 9-6 4-6 1h-10l-7-3-8-9-4-9-1-4v-23l4-11 6-9z" fill="#FDFDFD"/>
<path transform="translate(549,513)" d="m0 0h13l6 3 2 4v15l-3 6-4 2h-19l-4-3-1-3v-18l5-5z" fill="#FDFDFD"/>
<path transform="translate(446,488)" d="m0 0h12l4 3 1 4v14l-2 6-3 3h-20l-4-4-2-7v-11l3-6 2-1z" fill="#FDFDFD"/>
<path transform="translate(410,536)" d="m0 0h10l3 4v20l-3 6-2 1h-12l-9-3-3-4-1-12 3-8 4-3z" fill="#FDFDFD"/>
</svg>
